<svg width="36" height="36" viewBox="0 0 36 36" fill="none" xmlns="http://www.w3.org/2000/svg">
<g clip-path="url(#clip0_50_69)">
<path d="M28.7798 -0.0395911C28.8693 -0.0437293 28.8693 -0.0437293 28.9606 -0.047951C29.361 -0.0495676 29.569 0.0351689 29.8595 0.311628C30.099 0.593613 30.1213 0.915559 30.1111 1.2752C29.8778 3.98928 28.1315 5.84438 26.2845 7.67583C26.25 7.71008 26.2155 7.74433 26.1799 7.77962C25.8569 8.10008 25.5335 8.42021 25.2093 8.73953C25.0299 8.91627 24.8511 9.09352 24.6725 9.27111C24.5725 9.37027 24.472 9.46885 24.3714 9.56742C24.2811 9.65731 24.2811 9.65731 24.1891 9.749C24.136 9.80141 24.0829 9.85381 24.0282 9.9078C23.8986 10.0639 23.849 10.1349 23.8359 10.3359C23.8807 10.544 23.8807 10.544 23.9608 10.7717C23.975 10.8149 23.9892 10.8582 24.0038 10.9027C24.0513 11.0466 24.0997 11.1902 24.1482 11.3337C24.182 11.4354 24.2156 11.5371 24.2492 11.6388C24.3209 11.8553 24.3931 12.0716 24.4655 12.2879C24.5791 12.6265 24.6916 12.9654 24.8039 13.3044C24.9344 13.6979 25.065 14.0913 25.196 14.4846C25.4649 15.2921 25.7305 16.1007 25.9937 16.9101C26.0126 16.9684 26.0316 17.0267 26.0512 17.0868C26.4698 18.3728 26.8761 19.6627 27.2812 20.9531C26.6413 20.9711 26.0015 20.9848 25.3613 20.9932C25.064 20.9972 24.7669 21.0026 24.4697 21.0114C24.1825 21.0199 23.8954 21.0245 23.608 21.0265C23.4988 21.0279 23.3896 21.0307 23.2805 21.0349C22.4279 21.0663 22.4279 21.0663 22.0853 20.7869C21.9238 20.5915 21.7886 20.3955 21.6562 20.1796C21.578 20.0736 21.499 19.9682 21.4187 19.8638C21.3439 19.7612 21.2693 19.6585 21.1948 19.5556C20.793 19.0053 20.3831 18.4617 19.968 17.9214C19.7297 17.6104 19.4952 17.2976 19.2667 16.9793C19.2221 16.9175 19.1775 16.8556 19.1316 16.7919C19.0471 16.6741 18.9632 16.556 18.88 16.4373C18.8234 16.3586 18.8234 16.3586 18.7657 16.2784C18.7168 16.2091 18.7168 16.2091 18.6669 16.1384C18.5408 16.0089 18.4596 15.9805 18.2812 15.9609C17.9427 16.1113 17.6922 16.3839 17.4287 16.6377C17.0594 16.9883 16.6831 17.3205 16.285 17.6385C16.0886 17.7997 15.9017 17.9685 15.7148 18.1406C15.3762 18.4515 15.0264 18.7437 14.6686 19.0322C14.5413 19.1358 14.4154 19.241 14.2896 19.3463C13.5827 19.9371 12.8566 20.4968 12.1153 21.0438C11.9699 21.1516 11.8255 21.2606 11.6815 21.3703C11.1176 21.7966 10.532 22.1738 9.9241 22.535C9.86405 22.5711 9.804 22.6072 9.74213 22.6444C9.68882 22.676 9.63551 22.7075 9.58059 22.74C9.3792 22.8815 9.22385 23.0091 9.07031 23.2031C9.05248 23.4389 9.05248 23.4389 9.11096 23.6947C9.1195 23.743 9.12803 23.7913 9.13682 23.8411C9.16553 24.0009 9.19701 24.16 9.22852 24.3193C9.24904 24.4307 9.26937 24.5422 9.28952 24.6537C9.33257 24.8901 9.37675 25.1263 9.42181 25.3623C9.50638 25.8067 9.58576 26.2519 9.66511 26.6972C9.68172 26.7904 9.68172 26.7904 9.69866 26.8855C9.70958 26.9467 9.7205 27.008 9.73175 27.0712C9.76437 27.2533 9.79742 27.4353 9.83064 27.6174C9.84092 27.6739 9.85121 27.7305 9.86182 27.7887C9.88115 27.8949 9.90058 28.001 9.92012 28.1072C9.98438 28.4608 9.98438 28.4608 9.98438 28.6171C9.81613 28.6764 9.64767 28.7349 9.479 28.7929C9.43165 28.8097 9.38429 28.8265 9.33549 28.8437C9.07168 28.9338 8.85533 28.9771 8.57812 28.9687C8.37418 28.5529 8.17061 28.1368 7.96729 27.7207C7.93703 27.6588 7.90678 27.5969 7.87562 27.5331C7.4423 26.6458 7.01705 25.7556 6.61015 24.8559C6.55987 24.7457 6.55987 24.7457 6.50858 24.6332C6.48026 24.5704 6.45194 24.5076 6.42276 24.4429C6.20208 24.0112 6.02535 23.7896 5.58105 23.5807C5.53526 23.5588 5.48947 23.5369 5.44229 23.5143C5.29276 23.4432 5.14251 23.3737 4.99219 23.3042C4.88795 23.2549 4.78376 23.2056 4.67961 23.1562C4.41404 23.0305 4.14783 22.9063 3.88131 22.7827C3.73279 22.7138 3.58438 22.6447 3.43601 22.5754C3.09166 22.4148 2.74727 22.2543 2.40202 22.0956C1.94846 21.8872 1.49948 21.6719 1.05469 21.4453C1.09653 20.985 1.21377 20.5301 1.40625 20.1093C1.66948 20.0216 1.82055 20.061 2.09382 20.1085C2.14198 20.1167 2.19014 20.1249 2.23975 20.1334C2.39908 20.1607 2.55827 20.1887 2.71747 20.2167C2.82824 20.2358 2.93902 20.2548 3.04982 20.2738C3.34174 20.3239 3.63357 20.3745 3.92537 20.4253C4.39191 20.5065 4.85856 20.5871 5.32529 20.6673C5.48818 20.6953 5.651 20.7238 5.81382 20.7523C5.91406 20.7696 6.0143 20.7869 6.11454 20.8042C6.24545 20.827 6.24545 20.827 6.37899 20.8503C6.57951 20.8786 6.75942 20.9013 6.96094 20.8828C7.19103 20.651 7.33387 20.3776 7.48828 20.0918C8.27738 18.6752 9.34892 17.4041 10.375 16.155C10.4661 16.0439 10.5568 15.9325 10.6474 15.8211C11.0193 15.3639 11.3981 14.9129 11.7802 14.4642C11.8496 14.3827 11.9189 14.3012 11.9881 14.2197C12.4078 13.7256 12.8328 13.2381 13.2707 12.76C13.8009 12.262 13.8009 12.262 14.0567 11.6419C13.9722 11.4049 13.8606 11.3205 13.6626 11.1665C13.5918 11.1112 13.521 11.0559 13.4481 10.9989C13.1852 10.8012 12.9173 10.6105 12.6483 10.4213C12.2644 10.1501 11.8911 9.86593 11.5181 9.58004C11.0454 9.21785 10.5703 8.85956 10.0898 8.50777C9.55353 8.11497 9.02416 7.71375 8.49628 7.30971C8.09304 7.00163 7.68673 6.69825 7.27734 6.3984C6.74104 6.00559 6.21166 5.60437 5.68378 5.20034C5.22721 4.85151 4.76602 4.50956 4.30245 4.17011C3.80365 3.80395 3.31152 3.4293 2.8206 3.05265C2.49384 2.80229 2.16473 2.55726 1.82812 2.32027C1.89685 1.96834 2.10023 1.71723 2.30273 1.42818C2.33971 1.37303 2.37669 1.31788 2.41479 1.26105C2.45141 1.20862 2.48803 1.15619 2.52576 1.10216C2.55882 1.05424 2.59188 1.00633 2.62594 0.956955C2.78151 0.805402 2.87807 0.795302 3.09375 0.773397C3.3077 0.821436 3.3077 0.821436 3.55016 0.902469C3.59482 0.917136 3.63947 0.931802 3.68548 0.946913C3.83385 0.99586 3.98179 1.04599 4.12976 1.09612C4.23484 1.13104 4.33994 1.16588 4.44506 1.20064C4.66909 1.2749 4.89293 1.34968 5.11665 1.42488C5.46919 1.54337 5.82209 1.66073 6.17507 1.77789C6.58765 1.91491 7.00014 2.05216 7.41251 2.18977C8.20808 2.45523 9.00485 2.71681 9.80245 2.9761C10.1399 3.08584 10.4773 3.19594 10.8147 3.30602C10.8824 3.32811 10.9501 3.35021 11.0199 3.37297C11.8102 3.63086 12.6 3.88998 13.3899 4.14911C13.7085 4.25362 14.0272 4.35793 14.3459 4.46218C14.5259 4.52108 14.7059 4.58 14.8859 4.63894C14.9304 4.65349 14.9748 4.66805 15.0206 4.68304C15.6038 4.87403 16.1862 5.0669 16.7681 5.26165C17.1083 5.37541 17.4487 5.48851 17.7891 5.60153C17.9489 5.65481 18.1086 5.70842 18.2682 5.76239C18.4875 5.83654 18.7072 5.90953 18.927 5.98229C18.9911 6.00433 19.0553 6.02637 19.1214 6.04908C19.1809 6.06853 19.2404 6.08799 19.3017 6.10803C19.3783 6.13376 19.3783 6.13376 19.4565 6.16C19.6771 6.19769 19.8234 6.18017 20.0391 6.11715C20.19 5.99714 20.3148 5.88397 20.4468 5.74596C20.4852 5.70731 20.5235 5.66865 20.5631 5.62882C20.6896 5.50097 20.8149 5.37194 20.9402 5.24291C21.0288 5.15317 21.1174 5.06352 21.2061 4.97397C21.4399 4.73765 21.6727 4.5004 21.9052 4.26284C22.2753 3.88476 22.6464 3.50763 23.0185 3.13142C23.147 3.00099 23.2749 2.86986 23.4027 2.73865C24.8336 1.28085 26.6793 0.0181206 28.7798 -0.0395911Z" fill="#FF6600"/>
<path d="M25.0312 21.7969C26.2842 21.7969 27.5372 21.7969 28.8281 21.7969C28.8281 22.8178 28.8281 23.8387 28.8281 24.8906C28.3494 24.6247 27.9433 24.3613 27.5279 24.0172C27.3055 23.8443 27.1876 23.7682 26.9003 23.7524C26.5657 23.8634 26.3179 24.0389 26.0376 24.249C25.9589 24.3063 25.9589 24.3063 25.8787 24.3647C25.6848 24.5061 25.4923 24.6486 25.3043 24.7978C25.1719 24.8906 25.1719 24.8906 25.0312 24.8906C25.0312 23.8697 25.0312 22.8487 25.0312 21.7969Z" fill="#FF6600"/>
</g>
<defs>
<clipPath id="clip0_50_69">
<rect width="36" height="36" fill="white"/>
</clipPath>
</defs>
</svg>
