<svg width="36" height="36" viewBox="0 0 36 36" fill="none" xmlns="http://www.w3.org/2000/svg">
<g clip-path="url(#clip0_50_86)">
<path d="M22.1958 13.0696C22.2789 13.0695 22.3621 13.0694 22.4477 13.0693C22.5846 13.0697 22.5846 13.0697 22.7243 13.0701C22.8213 13.0701 22.9184 13.0701 23.0154 13.0701C23.2789 13.0701 23.5424 13.0705 23.8059 13.071C24.0812 13.0714 24.3565 13.0714 24.6319 13.0715C25.1533 13.0717 25.6747 13.0723 26.1962 13.073C26.7898 13.0738 27.3834 13.0742 27.977 13.0745C29.1982 13.0753 30.4193 13.0765 31.6405 13.0781C31.6412 13.1603 31.6418 13.2426 31.6425 13.3273C31.6453 13.6345 31.6499 13.9417 31.6551 14.2488C31.6571 14.3814 31.6586 14.5139 31.6596 14.6465C31.6611 14.8379 31.6644 15.0291 31.668 15.2204C31.6681 15.3083 31.6681 15.3083 31.6682 15.398C31.6803 15.888 31.8077 16.2734 32.1635 16.6201C32.5541 16.8678 32.8774 16.8978 33.3294 16.9041C33.3898 16.9054 33.4501 16.9068 33.5123 16.9082C33.7043 16.9124 33.8963 16.9157 34.0883 16.9189C34.2188 16.9216 34.3493 16.9243 34.4798 16.9271C34.799 16.9339 35.1182 16.9398 35.4374 16.9453C35.4456 18.8357 35.4518 20.7261 35.4556 22.6165C35.4574 23.4942 35.4599 24.372 35.4639 25.2497C35.4674 26.0147 35.4697 26.7796 35.4705 27.5446C35.4709 27.9497 35.472 28.3548 35.4746 28.7599C35.4769 29.1411 35.4777 29.5223 35.4771 29.9036C35.4772 30.0436 35.4779 30.1835 35.4793 30.3235C35.481 30.5146 35.4806 30.7056 35.4797 30.8967C35.4812 30.9798 35.4812 30.9798 35.4828 31.0646C35.4791 31.3366 35.4515 31.5193 35.2853 31.7398C34.9225 32.0708 34.5685 32.0831 34.0954 32.0794C34.0393 32.0795 33.9832 32.0796 33.9255 32.0797C33.7383 32.08 33.5511 32.0792 33.3639 32.0784C33.2294 32.0784 33.095 32.0784 32.9605 32.0785C32.5959 32.0785 32.2313 32.0777 31.8667 32.0767C31.4856 32.0758 31.1044 32.0758 30.7232 32.0756C30.0015 32.0752 29.2799 32.074 28.5583 32.0726C27.7366 32.071 26.915 32.0702 26.0934 32.0695C24.4033 32.0681 22.7133 32.0656 21.0233 32.0625C21.0185 29.7497 21.0148 27.4369 21.0126 25.1241C21.0123 24.8511 21.012 24.5781 21.0117 24.3051C21.0117 24.2507 21.0116 24.1964 21.0116 24.1404C21.0106 23.2602 21.009 22.38 21.007 21.4998C21.0051 20.5967 21.0039 19.6936 21.0035 18.7906C21.0032 18.2333 21.0023 17.676 21.0006 17.1186C20.9993 16.6914 20.9992 16.2642 20.9995 15.8369C20.9994 15.6616 20.999 15.4862 20.9982 15.3109C20.9971 15.0718 20.9974 14.8327 20.998 14.5936C20.9973 14.524 20.9967 14.4544 20.9961 14.3826C20.9985 14.0117 21.0242 13.7492 21.2343 13.4296C21.5492 13.1383 21.7736 13.0693 22.1958 13.0696Z" fill="#FF6600"/>
<path d="M7.31253 12.4453C7.50892 12.5352 7.65307 12.6308 7.80911 12.7793C9.11952 13.9183 11.0255 14.1491 12.687 14.1504C12.7407 14.1504 12.7943 14.1505 12.8496 14.1505C13.6256 14.1494 14.3638 14.1256 15.1172 13.9219C15.1636 13.9098 15.2101 13.8977 15.2579 13.8853C16.1969 13.6369 17.0523 13.2667 17.7968 12.6282C17.9297 12.5156 17.9297 12.5156 18.0703 12.4453C18.1734 15.0332 17.4731 17.6244 15.7588 19.604C15.0352 20.3723 14.0844 20.9857 13.0048 21.0471C11.7779 21.0737 10.842 20.6988 9.94513 19.8567C8.19721 18.1339 7.33531 15.5726 7.30566 13.1388C7.30648 13.0564 7.3073 12.974 7.30814 12.8892C7.30877 12.8048 7.3094 12.7204 7.31006 12.6335C7.31087 12.5714 7.31169 12.5093 7.31253 12.4453Z" fill="#FF6600"/>
</g>
<defs>
<clipPath id="clip0_50_86">
<rect width="36" height="36" fill="white"/>
</clipPath>
</defs>
</svg>
