<svg width="36" height="36" viewBox="0 0 36 36" fill="none" xmlns="http://www.w3.org/2000/svg">
<path d="M7.5397 5.61573C7.60068 5.61546 7.66165 5.61519 7.72447 5.61491C7.82501 5.615 7.82501 5.615 7.92759 5.61509C7.99876 5.61488 8.06994 5.61468 8.14328 5.61446C8.38293 5.61385 8.62258 5.61374 8.86224 5.61364C9.03362 5.61331 9.205 5.61296 9.37637 5.61258C9.84287 5.61166 10.3094 5.6112 10.7759 5.61089C11.0673 5.6107 11.3587 5.6104 11.6501 5.61008C12.4572 5.60923 13.2643 5.6085 14.0714 5.60826C14.1231 5.60825 14.1747 5.60823 14.228 5.60822C14.3056 5.60819 14.3056 5.60819 14.3849 5.60817C14.4898 5.60814 14.5948 5.60811 14.6997 5.60808C14.7778 5.60805 14.7778 5.60805 14.8575 5.60803C15.7002 5.60775 16.5429 5.60653 17.3856 5.60489C18.2512 5.60322 19.1168 5.60234 19.9823 5.60226C20.4682 5.6022 20.954 5.6018 21.4398 5.60052C21.8971 5.59932 22.3543 5.59921 22.8116 5.59982C22.9792 5.59988 23.1468 5.59957 23.3144 5.59888C23.5437 5.59798 23.773 5.5984 24.0023 5.59913C24.0682 5.59856 24.1342 5.598 24.2021 5.59741C24.9882 5.60326 25.5767 5.82471 26.1368 6.37726C26.5947 6.87788 26.7364 7.41914 26.7304 8.08783C26.6752 9.08721 26.6752 9.08721 26.5079 9.42184C26.5474 9.42091 26.587 9.41997 26.6277 9.419C27.0429 9.4096 27.4582 9.40328 27.8735 9.39867C28.028 9.39656 28.1825 9.39369 28.337 9.39002C30.1106 9.34892 30.1106 9.34892 30.8112 9.9841C31.3943 10.5731 31.5847 11.4686 31.8429 12.2343C31.8844 12.3568 31.9259 12.4792 31.9675 12.6015C32.0883 12.9575 32.2087 13.3136 32.329 13.6698C32.422 13.9449 32.5149 14.22 32.608 14.4951C32.6332 14.5698 32.6332 14.5698 32.659 14.646C32.7461 14.9037 32.8333 15.1613 32.9204 15.419C32.9555 15.5228 32.9906 15.6265 33.0257 15.7303C33.0431 15.7817 33.0605 15.8332 33.0784 15.8861C33.1829 16.1951 33.2873 16.504 33.3915 16.8131C33.4575 17.0086 33.5236 17.2042 33.5897 17.3997C33.6353 17.5349 33.6809 17.6701 33.7264 17.8053C33.7543 17.8875 33.7821 17.9698 33.8107 18.0545C33.8365 18.1315 33.8623 18.2085 33.8889 18.2878C33.948 18.4554 34.0146 18.6139 34.0868 18.7759C34.3607 19.5096 34.1199 20.3611 33.9665 21.0995C33.9451 21.2056 33.9237 21.3117 33.9023 21.4178C33.8577 21.6385 33.8125 21.8591 33.7669 22.0796C33.7086 22.3607 33.652 22.6422 33.5957 22.9237C33.5519 23.1423 33.5073 23.3607 33.4625 23.579C33.4413 23.6827 33.4204 23.7865 33.3996 23.8903C33.1199 25.2849 33.1199 25.2849 32.6207 25.6245C32.5735 25.6577 32.5263 25.691 32.4776 25.7253C32.1801 25.9018 31.8928 25.8841 31.5586 25.8818C31.5027 25.8817 31.4468 25.8816 31.3893 25.8815C31.2109 25.8811 31.0325 25.8803 30.8541 25.8794C30.7331 25.879 30.6121 25.8787 30.4911 25.8784C30.1946 25.8776 29.8982 25.8764 29.6017 25.875C29.4683 25.4082 29.4683 25.4082 29.4031 25.1798C29.0393 23.9996 28.3912 23.1912 27.308 22.6167C27.0238 22.4771 26.7454 22.3631 26.4376 22.289C26.3854 22.2763 26.3332 22.2637 26.2794 22.2506C25.17 22.0678 24.0675 22.2913 23.1329 22.9218C22.1364 23.6722 21.6852 24.6758 21.4454 25.875C20.1692 25.875 18.8931 25.875 17.5782 25.875C17.4854 25.5269 17.3926 25.1789 17.297 24.8203C16.8387 23.7138 16.0747 22.9517 14.9723 22.478C13.8537 22.0676 12.748 22.145 11.6676 22.6406C10.6639 23.1726 9.97917 23.9731 9.6417 25.062C9.56184 25.3313 9.48948 25.6023 9.42197 25.875C8.83337 25.8815 8.24478 25.8865 7.65615 25.8895C7.3828 25.891 7.10947 25.893 6.83614 25.8962C6.57217 25.8993 6.30822 25.9009 6.04424 25.9017C5.94371 25.9022 5.84319 25.9032 5.74267 25.9047C5.60149 25.9068 5.46029 25.9069 5.3191 25.9069C5.23884 25.9075 5.15859 25.9081 5.0759 25.9088C4.72047 25.8552 4.50368 25.6756 4.26719 25.4135C4.06004 25.1143 4.04116 24.8232 4.07822 24.4687C4.20112 24.1388 4.37668 23.9263 4.64072 23.6953C4.86418 23.6208 5.03047 23.614 5.2653 23.6101C5.34741 23.6081 5.42953 23.6061 5.51414 23.6041C5.68606 23.6005 5.858 23.5973 6.02995 23.5948C6.86812 23.5807 6.86812 23.5807 7.55869 23.1635C7.76745 22.8243 7.77811 22.543 7.73447 22.1484C7.58025 21.8342 7.41898 21.6626 7.10166 21.5156C6.84319 21.4518 6.60183 21.4362 6.33607 21.4353C6.2544 21.4348 6.17274 21.4343 6.08859 21.4338C6.00099 21.4335 5.91339 21.4332 5.82313 21.4329C5.68473 21.4317 5.54632 21.4305 5.40792 21.4292C5.06748 21.426 4.72704 21.4233 4.38658 21.4224C4.19526 21.4218 4.00397 21.4205 3.81266 21.4184C3.63276 21.4164 3.45285 21.4155 3.27294 21.4157C2.6879 21.4075 2.44499 21.3374 2.01719 20.9443C1.84449 20.6501 1.81551 20.3775 1.82822 20.039C1.94396 19.6237 2.12325 19.4396 2.46104 19.1953C2.68585 19.0829 2.93055 19.1124 3.17762 19.1101C3.29604 19.1082 3.41447 19.1061 3.53289 19.1041C3.71925 19.1012 3.9056 19.0986 4.09197 19.0967C4.27208 19.0948 4.45213 19.0916 4.63221 19.0882C4.68695 19.0879 4.74168 19.0877 4.79808 19.0875C5.26909 19.0771 5.7394 19.0107 6.08213 18.6679C6.26616 18.3612 6.30434 18.0701 6.25791 17.7187C6.16219 17.456 6.02905 17.2668 5.80528 17.0947C5.39595 16.915 4.96308 16.927 4.52303 16.9212C4.06853 16.9039 3.80605 16.7513 3.48936 16.4179C3.32075 16.0548 3.3221 15.7218 3.3751 15.3281C3.53723 14.9789 3.74313 14.8079 4.07822 14.625C4.29767 14.5863 4.51282 14.5874 4.73521 14.5895C4.7976 14.5889 4.85999 14.5882 4.92427 14.5875C5.12274 14.5855 5.32115 14.5853 5.51963 14.5854C5.7181 14.5852 5.91653 14.5845 6.115 14.5826C6.23817 14.5814 6.36136 14.5812 6.48453 14.5821C6.84053 14.579 7.06811 14.5267 7.38291 14.3437C7.42932 14.3437 7.47572 14.3437 7.52354 14.3437C7.54529 14.3002 7.56704 14.2567 7.58946 14.2119C7.63779 14.1152 7.68613 14.0185 7.73447 13.9218C7.77131 13.5523 7.77807 13.2423 7.62022 12.9023C7.38579 12.6555 7.15844 12.5312 6.81843 12.4894C6.74341 12.4895 6.66839 12.4896 6.59109 12.4897C6.50543 12.4892 6.41977 12.4887 6.33152 12.4882C6.19407 12.4888 6.19407 12.4888 6.05384 12.4895C5.95788 12.489 5.86193 12.4884 5.76597 12.4877C5.36013 12.4849 4.9543 12.4848 4.54846 12.485C4.29949 12.485 4.05056 12.4836 3.8016 12.4815C3.66159 12.4807 3.52158 12.4816 3.38157 12.4825C2.89759 12.4785 2.56749 12.4662 2.17979 12.164C1.89054 11.791 1.78954 11.511 1.82822 11.039C1.96175 10.6301 2.14508 10.4007 2.53135 10.1953C2.72144 10.1319 2.8313 10.116 3.02641 10.1153C3.08407 10.1149 3.14173 10.1145 3.20113 10.1141C3.26415 10.114 3.32716 10.114 3.39208 10.1139C3.45864 10.1135 3.5252 10.1132 3.59378 10.1128C3.73845 10.112 3.88313 10.1114 4.02781 10.111C4.25685 10.1101 4.48588 10.1088 4.71491 10.1072C5.36616 10.1029 6.01742 10.0991 6.66868 10.0967C7.06693 10.0953 7.46517 10.0928 7.86341 10.0897C8.01515 10.0887 8.16689 10.0881 8.31864 10.0878C8.53105 10.0875 8.74342 10.0859 8.95583 10.0839C9.01841 10.0842 9.081 10.0844 9.14548 10.0846C9.58429 10.0787 9.88475 9.99997 10.2174 9.6943C10.4055 9.37375 10.4587 9.06709 10.3671 8.70334C10.2338 8.38582 10.0781 8.22242 9.75683 8.07161C9.30911 7.94249 8.82139 7.9757 8.3585 7.97604C8.19607 7.97579 8.0337 7.97511 7.87129 7.97318C7.77081 7.97201 7.67031 7.97179 7.56983 7.97269C7.24531 7.96927 7.02636 7.90334 6.7501 7.73434C6.47697 7.44604 6.34646 7.19226 6.30186 6.79831C6.33467 6.47566 6.42159 6.24083 6.60947 5.97653C6.91053 5.73692 7.15608 5.61636 7.5397 5.61573Z" fill="#FF6600"/>
<path d="M27.4089 23.5722C28.0511 24.1121 28.4157 24.7635 28.547 25.5937C28.6102 26.6463 28.4308 27.506 27.7692 28.3447C27.2773 28.8829 26.5716 29.2359 25.8433 29.2736C24.9119 29.2911 24.2046 29.1796 23.4845 28.5468C23.4419 28.5116 23.3993 28.4763 23.3555 28.44C22.7332 27.8816 22.4746 27.1147 22.4299 26.2968C22.4222 25.3016 22.6721 24.5117 23.3439 23.7656C24.5055 22.7273 26.1543 22.6609 27.4089 23.5722Z" fill="#FF6600"/>
<path d="M15.4646 23.6315C16.0935 24.2128 16.5017 24.878 16.5405 25.75C16.5643 26.7892 16.4092 27.631 15.68 28.4172C14.9499 29.1159 14.1654 29.2853 13.1883 29.2694C12.3863 29.2364 11.7108 28.8236 11.1624 28.2568C10.4659 27.438 10.4165 26.4739 10.4768 25.4531C10.596 24.6459 11.0922 23.9379 11.7359 23.4538C12.874 22.6928 14.4134 22.7455 15.4646 23.6315Z" fill="#FF6600"/>
</svg>
