<svg width="36" height="36" viewBox="0 0 36 36" fill="none" xmlns="http://www.w3.org/2000/svg">
<g clip-path="url(#clip0_50_53)">
<path d="M2.32031 5.55474C4.07812 5.55474 4.07812 5.55474 4.63184 5.93706C4.85376 6.1686 4.85376 6.1686 4.95758 6.28571C5.12646 6.46724 5.3164 6.61377 5.51074 6.76763C5.57364 6.81875 5.63655 6.86987 5.70135 6.92254C5.74577 6.95843 5.79018 6.99432 5.83594 7.0313C6.19659 6.92373 6.42861 6.69804 6.70166 6.45122C6.79057 6.37156 6.87965 6.2921 6.9689 6.21282C7.00791 6.17763 7.04691 6.14244 7.08709 6.10618C8.06957 5.2854 7.87542 5.55474 9.5625 5.55474C9.5625 13.9311 9.5625 22.3074 9.5625 30.9376C7.80469 30.9376 7.80469 30.9376 7.28613 30.5904C7.08261 30.3781 7.08261 30.3781 6.98741 30.2697C6.82761 30.0954 6.64793 29.9528 6.46436 29.8038C6.40408 29.7528 6.34381 29.7019 6.28171 29.6494C6.11942 29.5329 6.03128 29.4855 5.83594 29.461C5.66889 29.5814 5.52516 29.7004 5.37451 29.8389C5.33026 29.8772 5.28602 29.9156 5.24043 29.955C5.03948 30.1296 4.85368 30.3023 4.67688 30.5019C4.51318 30.6739 4.51318 30.6739 4.07812 30.9376C3.49805 30.9376 2.91797 30.9376 2.32031 30.9376C2.32031 22.5612 2.32031 14.1849 2.32031 5.55474Z" fill="#FF6600"/>
<path d="M25.3128 25.1719C25.3128 28.2115 25.3128 31.2511 25.3128 34.3828C24.988 34.4524 24.6632 34.522 24.3285 34.5938C23.9001 34.7714 23.5706 34.9805 23.2035 35.2617C22.5086 35.7935 21.938 36.0501 21.0496 35.9868C20.3997 35.889 19.9242 35.5144 19.4198 35.1167C19.1164 34.8777 18.8832 34.7687 18.5101 34.6772C18.222 34.572 18.0613 34.4761 17.9177 34.2081C17.7851 33.9097 17.6847 33.6012 17.5861 33.2902C17.4972 33.0128 17.402 32.738 17.3063 32.463C16.9518 31.4372 16.6211 30.4056 16.3304 29.3599C16.3069 29.2754 16.2833 29.1909 16.259 29.1039C16.0885 28.4725 16.0885 28.4725 16.1019 28.125C18.3143 27.2783 20.5387 26.499 22.8036 25.8047C22.8554 25.7888 22.9072 25.7729 22.9606 25.7565C23.4917 25.594 24.0241 25.4367 24.56 25.2905C24.644 25.2676 24.7281 25.2447 24.8147 25.221C25.0316 25.1719 25.0316 25.1719 25.3128 25.1719Z" fill="#FF6600"/>
<path d="M0.0703125 31.7812C3.92203 31.7812 7.77375 31.7812 11.7422 31.7812C11.7422 32.9182 11.7422 34.0552 11.7422 35.2266C11.4173 35.0409 11.0925 34.8553 10.7578 34.6641C9.86836 34.3443 9.03006 34.3638 8.15625 34.7344C7.78183 34.9347 7.44467 35.1631 7.13232 35.4507C6.586 35.9279 5.97497 35.9864 5.27646 35.9552C4.59818 35.9049 4.19066 35.5814 3.68451 35.1621C2.94688 34.5668 2.05958 34.3745 1.125 34.4531C0.874893 34.5141 0.635513 34.5882 0.392487 34.6729C0.210938 34.7344 0.210938 34.7344 0.0703125 34.7344C0.0703125 33.7598 0.0703125 32.7853 0.0703125 31.7812Z" fill="#FF6600"/>
</g>
<defs>
<clipPath id="clip0_50_53">
<rect width="36" height="36" fill="white"/>
</clipPath>
</defs>
</svg>
