<svg width="36" height="36" viewBox="0 0 36 36" fill="none" xmlns="http://www.w3.org/2000/svg">
<g clip-path="url(#clip0_50_127)">
<path d="M14.8359 0C16.9242 0 19.0125 0 21.1641 0C21.1641 0.696094 21.1641 1.39219 21.1641 2.10938C20.468 2.10938 19.7719 2.10938 19.0547 2.10938C19.0779 2.85188 19.1011 3.59437 19.125 4.35938C19.357 4.47539 19.5891 4.59141 19.8281 4.71094C20.5217 5.20544 20.9563 5.85755 21.1641 6.67969C21.1927 6.89898 21.1977 7.11351 21.1948 7.33447C21.1941 7.42159 21.1941 7.42159 21.1934 7.51046C21.1777 8.11097 21.0567 8.6259 20.701 9.11707C20.6534 9.18308 20.6534 9.18308 20.6048 9.25042C20.5805 9.2838 20.5563 9.31717 20.5312 9.35156C21.6002 9.94569 22.6827 10.5058 23.7788 11.0479C24.0656 11.1899 24.3522 11.3322 24.6388 11.4747C24.7082 11.5092 24.7777 11.5438 24.8493 11.5793C25.3415 11.8249 25.8291 12.0784 26.3149 12.3362C26.8176 12.6025 27.3257 12.8572 27.8354 13.1098C28.6906 13.5337 29.5425 13.9625 30.383 14.4149C32.0445 15.286 34.1242 14.7396 36 14.7656C36 21.773 36 28.7803 36 36C24.12 36 12.24 36 0 36C0 28.9927 0 21.9853 0 14.7656C1.67062 14.7424 3.34125 14.7192 5.0625 14.6953C6.53602 13.9601 6.53602 13.9601 7.99475 13.2017C8.48982 12.9416 8.99152 12.6944 9.49219 12.4453C10.1401 12.1229 10.7858 11.7981 11.4239 11.4567C11.7884 11.2631 12.1563 11.0772 12.5258 10.8935C12.6036 10.8548 12.6036 10.8548 12.683 10.8153C12.9427 10.6861 13.2027 10.5574 13.4629 10.4292C14.1446 10.0919 14.8093 9.7306 15.4688 9.35156C15.4385 9.31022 15.4083 9.26888 15.3771 9.22628C14.932 8.60905 14.8359 8.14794 14.8359 7.38281C15.5552 7.38281 16.2745 7.38281 17.0156 7.38281C17.0852 7.62645 17.0852 7.62645 17.1562 7.875C17.425 8.19103 17.425 8.19103 17.8036 8.31116C18.2909 8.32436 18.2909 8.32436 18.7031 8.08594C18.9429 7.81313 18.946 7.5464 18.9341 7.19797C18.9074 6.97565 18.851 6.84801 18.7031 6.67969C18.1844 6.29746 17.58 6.37044 16.9453 6.32812C16.9453 4.93594 16.9453 3.54375 16.9453 2.10938C16.2492 2.10938 15.5531 2.10938 14.8359 2.10938C14.8359 1.41328 14.8359 0.717187 14.8359 0Z" fill="#FF6600"/>
</g>
<defs>
<clipPath id="clip0_50_127">
<rect width="36" height="36" fill="white"/>
</clipPath>
</defs>
</svg>
