<svg width="36" height="36" viewBox="0 0 36 36" fill="none" xmlns="http://www.w3.org/2000/svg">
<g clip-path="url(#clip0_50_118)">
<path d="M18.4217 6.25439e-05C18.7233 0.140809 18.9854 0.326708 19.2532 0.522119C19.4251 0.646683 19.5992 0.76763 19.7738 0.888307C20.0502 1.07939 20.326 1.27133 20.6014 1.46399C20.9977 1.74081 21.3967 2.01361 21.7967 2.28522C22.3948 2.69165 22.9892 3.10327 23.5822 3.51706C24.0398 3.83592 24.4995 4.15145 24.9607 4.46491C25.5589 4.87136 26.1532 5.28296 26.7463 5.69675C27.2039 6.01561 27.6635 6.33114 28.1248 6.64459C28.7229 7.05105 29.3173 7.46265 29.9104 7.87644C30.3679 8.1953 30.8276 8.51083 31.2889 8.82428C31.8862 9.23021 32.4799 9.64118 33.0721 10.0546C33.6148 10.4329 34.1609 10.8062 34.7092 11.1765C34.8823 11.2938 35.0546 11.4121 35.2264 11.5313C35.2797 11.5681 35.333 11.6049 35.3879 11.6428C35.4377 11.6783 35.4874 11.7139 35.5387 11.7505C35.582 11.7812 35.6254 11.8119 35.6701 11.8436C35.8722 12.0301 35.9878 12.2195 36.0265 12.4933C36.0266 12.5618 36.0268 12.6303 36.0269 12.7009C36.0276 12.7803 36.0283 12.8598 36.029 12.9416C36.0287 13.0285 36.0284 13.1154 36.028 13.205C36.0285 13.2976 36.029 13.3902 36.0295 13.4856C36.0308 13.7425 36.0307 13.9994 36.0305 14.2563C36.0304 14.5335 36.0316 14.8106 36.0326 15.0877C36.0344 15.6307 36.0349 16.1736 36.035 16.7166C36.0351 17.158 36.0356 17.5994 36.0363 18.0408C36.0381 19.2922 36.0391 20.5437 36.0389 21.7952C36.0389 21.8627 36.0389 21.9302 36.0389 21.9997C36.0389 22.0672 36.0389 22.1348 36.0389 22.2044C36.0388 23.299 36.0408 24.3937 36.0438 25.4883C36.0468 26.6124 36.0483 27.7364 36.0481 28.8605C36.048 29.4915 36.0486 30.1225 36.0509 30.7536C36.0528 31.2909 36.0532 31.8282 36.0518 32.3655C36.0511 32.6396 36.0511 32.9136 36.0529 33.1877C36.0546 33.4389 36.0543 33.6899 36.0525 33.9411C36.052 34.0745 36.0536 34.2079 36.0552 34.3412C36.0487 34.8851 35.95 35.2422 35.5779 35.6485C35.2799 35.906 34.9964 36.009 34.6049 36.008C34.5015 36.008 34.5015 36.008 34.3959 36.008C34.3217 36.0077 34.2474 36.0073 34.1709 36.0069C34.0566 36.0068 34.0566 36.0068 33.94 36.0066C33.6964 36.0062 33.4529 36.0053 33.2093 36.0045C33.0443 36.0041 32.8792 36.0038 32.7142 36.0035C32.3094 36.0027 31.9046 36.0015 31.4998 36.0001C31.4995 35.8618 31.4995 35.8618 31.4991 35.7207C31.4935 33.5315 31.4873 31.3423 31.4801 29.1531C31.4792 28.8835 31.4784 28.614 31.4775 28.3444C31.4773 28.2907 31.4771 28.2371 31.477 28.1818C31.4742 27.3133 31.4719 26.4449 31.4697 25.5764C31.4676 24.685 31.4648 23.7936 31.4616 22.9022C31.4597 22.3523 31.4581 21.8025 31.4571 21.2526C31.4563 20.8307 31.4547 20.4088 31.4529 19.9869C31.4522 19.814 31.4518 19.6411 31.4517 19.4683C31.4515 19.232 31.4504 18.9958 31.4491 18.7595C31.4493 18.6572 31.4493 18.6572 31.4495 18.5529C31.4452 18.033 31.4352 17.4631 31.0691 17.0596C31.0313 17.0156 30.9934 16.9715 30.9543 16.9261C30.4391 16.5294 29.8616 16.5638 29.2414 16.567C29.1404 16.5668 29.0394 16.5664 28.9384 16.566C28.6617 16.5652 28.3851 16.5656 28.1085 16.5662C27.8098 16.5667 27.5111 16.566 27.2124 16.5654C26.6276 16.5645 26.0428 16.5647 25.458 16.5653C24.9827 16.5658 24.5074 16.5658 24.0321 16.5656C23.9645 16.5656 23.8968 16.5655 23.8271 16.5655C23.6896 16.5654 23.5521 16.5654 23.4146 16.5653C22.1258 16.5647 20.837 16.5654 19.5481 16.5665C18.4425 16.5674 17.3368 16.5673 16.2311 16.5663C14.9469 16.5652 13.6626 16.5647 12.3784 16.5654C12.2414 16.5655 12.1044 16.5655 11.9675 16.5656C11.9001 16.5656 11.8327 16.5657 11.7633 16.5657C11.2886 16.5659 10.8139 16.5656 10.3392 16.5651C9.76068 16.5645 9.18213 16.5646 8.60359 16.5658C8.30845 16.5663 8.01333 16.5665 7.7182 16.5658C7.4479 16.5652 7.17763 16.5655 6.90734 16.5667C6.80969 16.5669 6.71203 16.5668 6.61438 16.5663C5.77895 16.561 5.77895 16.561 5.04528 16.9261C5.00739 16.9702 4.96951 17.0142 4.93047 17.0596C4.8915 17.1026 4.85252 17.1456 4.81237 17.1898C4.53992 17.6655 4.54948 18.2257 4.55054 18.7595C4.55013 18.8336 4.54973 18.9076 4.54931 18.9839C4.54812 19.2307 4.54791 19.4775 4.5477 19.7242C4.54705 19.9017 4.54633 20.0791 4.54556 20.2565C4.54404 20.6379 4.54294 21.0192 4.54223 21.4005C4.5412 21.9518 4.53941 22.5031 4.53743 23.0544C4.53423 23.949 4.53166 24.8436 4.52947 25.7382C4.52735 26.607 4.52493 27.4757 4.52212 28.3444C4.52195 28.398 4.52178 28.4516 4.5216 28.5068C4.52073 28.7757 4.51985 29.0446 4.51898 29.3135C4.5117 31.5424 4.50544 33.7712 4.49981 36.0001C4.01945 36.0072 3.53911 36.0121 3.05871 36.0155C2.89544 36.0169 2.73218 36.0188 2.56893 36.0213C2.33364 36.0247 2.0984 36.0263 1.86309 36.0275C1.79063 36.029 1.71817 36.0304 1.64352 36.0319C1.12654 36.0321 0.723518 35.9477 0.347251 35.5757C0.00439793 35.0456 -0.00916029 34.8452 -0.00982594 34.5672C-0.0101827 34.4882 -0.0105398 34.4092 -0.0109074 34.3279C-0.0109424 34.2407 -0.0109765 34.1536 -0.0110126 34.0638C-0.0113207 33.9715 -0.0116285 33.8792 -0.011946 33.7841C-0.0127876 33.5274 -0.0131849 33.2707 -0.0135059 33.014C-0.0139246 32.7373 -0.0147409 32.4607 -0.0154951 32.184C-0.0172196 31.5157 -0.0182481 30.8473 -0.0191557 30.1789C-0.0194167 29.9902 -0.0196958 29.8014 -0.0199819 29.6127C-0.0217562 28.441 -0.0233066 27.2693 -0.0241811 26.0976C-0.0243871 25.8262 -0.0245958 25.5548 -0.0248077 25.2834C-0.0248601 25.2159 -0.0249124 25.1485 -0.0249665 25.079C-0.0258564 23.9858 -0.0281938 22.8926 -0.0311227 21.7995C-0.0341042 20.6775 -0.0357612 19.5555 -0.0361288 18.4336C-0.0363689 17.8035 -0.0371963 17.1734 -0.0395105 16.5433C-0.0414779 16.0068 -0.0422531 15.4702 -0.0414653 14.9337C-0.0411002 14.6599 -0.0413077 14.3862 -0.0430467 14.1124C-0.0449164 13.8156 -0.0440619 13.5189 -0.0429416 13.222C-0.0439177 13.1355 -0.0448928 13.049 -0.0458984 12.9599C-0.0412112 12.4572 0.00482012 12.1847 0.351371 11.8126C0.533916 11.6623 0.533916 11.6623 0.727653 11.5382C0.799166 11.4915 0.870678 11.4449 0.944358 11.3969C1.01841 11.3499 1.09246 11.3029 1.16875 11.2545C1.3148 11.1602 1.46073 11.0658 1.60656 10.9713C1.67866 10.9246 1.75075 10.8779 1.82503 10.8298C2.09961 10.6472 2.36502 10.4536 2.63048 10.258C2.90213 10.0594 3.17988 9.87018 3.4583 9.68122C3.57541 9.60139 3.6925 9.52156 3.80959 9.44171C3.86695 9.40265 3.92432 9.36358 3.98342 9.32334C4.22034 9.16187 4.45686 8.99983 4.69317 8.83747C4.73777 8.80682 4.78237 8.77618 4.82832 8.74461C5.23854 8.4623 5.64695 8.1774 6.05547 7.89264C6.653 7.47619 7.25336 7.06418 7.85575 6.65482C8.32129 6.33805 8.78411 6.01757 9.2459 5.69537C9.8346 5.28464 10.4262 4.87852 11.0199 4.47507C11.4854 4.15832 11.9482 3.83786 12.41 3.51569C12.9983 3.10521 13.5895 2.69927 14.1829 2.29615C14.6592 1.97211 15.1324 1.6438 15.6048 1.31403C16.068 0.990789 16.5322 0.669379 17.0023 0.35602C17.0452 0.327395 17.0881 0.298771 17.1323 0.269279C17.5711 -0.0213693 17.8929 -0.0875714 18.4217 6.25439e-05Z" fill="#FF6600"/>
</g>
<defs>
<clipPath id="clip0_50_118">
<rect width="36" height="36" fill="white"/>
</clipPath>
</defs>
</svg>
